<svg xmlns="http://www.w3.org/2000/svg" width="32" height="32" fill="currentColor" viewBox="0 0 32 32"><path d="m27.939 9.341-3.273 9a1 1 0 0 1-.94.659H8.274a1 1 0 0 1-.94-.659l-3.273-9A1 1 0 0 1 5 8h22a1 1 0 0 1 .939 1.341Z" opacity=".2"/><path d="M28.64 7.853A2 2 0 0 0 27 7H17V3h2a1 1 0 1 0 0-2h-6a1 1 0 1 0 0 2h2v4H5a2 2 0 0 0-1.875 2.684l3.274 9A2 2 0 0 0 8.274 20H12v8a1 1 0 0 0 2 0v-8h4v8a1 1 0 1 0 2 0v-8h3.728a2 2 0 0 0 1.875-1.316l3.274-9a2 2 0 0 0-.238-1.831ZM13.834 18l-1.637-9h7.605l-1.638 9h-4.33ZM5 9h5.165l1.637 9h-3.53L5 9Zm18.728 9h-3.529l1.636-9H27l-3.272 9Z"/></svg>