<svg xmlns="http://www.w3.org/2000/svg" width="32" height="32" fill="currentColor" viewBox="0 0 32 32"><path d="M28.229 8.139A1.5 1.5 0 0 0 27 7.5H16.5v-5H19a.5.5 0 1 0 0-1h-6a.5.5 0 0 0 0 1h2.5v5H5a1.5 1.5 0 0 0-1.41 2.012l3.274 9a1.5 1.5 0 0 0 1.409.988H12.5V28a.5.5 0 1 0 1 0v-8.5h5V28a.5.5 0 1 0 1 0v-8.5h4.228a1.5 1.5 0 0 0 1.409-.988l3.273-9a1.502 1.502 0 0 0-.181-1.373ZM13.418 18.5l-1.819-10h8.802l-1.818 10h-5.165Zm-5.615-.329-3.273-9A.5.5 0 0 1 5 8.5h5.583l1.817 10H8.275a.5.5 0 0 1-.472-.329Zm19.667-9-3.272 9a.5.5 0 0 1-.47.329h-4.125l1.819-10H27a.5.5 0 0 1 .47.671Z"/></svg>