<svg xmlns="http://www.w3.org/2000/svg" width="32" height="32" fill="currentColor" viewBox="0 0 32 32"><path d="M28.434 8A1.75 1.75 0 0 0 27 7.25H16.75v-4.5H19a.75.75 0 0 0 0-1.5h-6a.75.75 0 1 0 0 1.5h2.25v4.5H5a1.75 1.75 0 0 0-1.645 2.348l3.274 9a1.75 1.75 0 0 0 1.644 1.152h3.977V28a.75.75 0 1 0 1.5 0v-8.25h4.5V28a.75.75 0 1 0 1.5 0v-8.25h3.978a1.75 1.75 0 0 0 1.647-1.152l3.274-9A1.75 1.75 0 0 0 28.434 8ZM13.625 18.25 11.9 8.75h8.2l-1.726 9.5h-4.75Zm-5.587-.165-3.273-9A.25.25 0 0 1 5 8.75h5.375l1.728 9.5h-3.83a.25.25 0 0 1-.235-.165Zm19.197-9-3.272 9a.25.25 0 0 1-.235.165h-3.83l1.727-9.5H27a.242.242 0 0 1 .205.106.25.25 0 0 1 .03.229Z"/></svg>