<svg xmlns="http://www.w3.org/2000/svg" width="32" height="32" fill="currentColor" viewBox="0 0 32 32"><path d="M29.048 7.565A2.5 2.5 0 0 0 27 6.5h-9.5v-3H19a1.5 1.5 0 0 0 0-3h-6a1.5 1.5 0 0 0 0 3h1.5v3H5a2.5 2.5 0 0 0-2.35 3.354l3.274 9A2.508 2.508 0 0 0 8.273 20.5H11.5V28a1.5 1.5 0 1 0 3 0v-7.5h3V28a1.5 1.5 0 1 0 3 0v-7.5h3.228a2.508 2.508 0 0 0 2.348-1.646l3.274-9a2.501 2.501 0 0 0-.302-2.289ZM14.25 17.5l-1.452-8h6.405l-1.453 8h-3.5Zm-8.536-8H9.75l1.455 8h-2.58l-2.91-8Zm17.661 8h-2.577l1.452-8h4.034l-2.909 8Z"/></svg>